<svg xmlns="http://www.w3.org/2000/svg" height="58" viewBox="0 0 132.7 113.3"><g fill="none" stroke="#939393" stroke-width="3" stroke-linecap="round"><path d="M66 62c6 0 6 12 12.3 12 6.2 0 6.2-12 12.4-12S97 74 103 74l-3.4 13.5C99 89.5 97 91 95 91H37c-2.2 0-4-1.4-4.7-3.5L29 74c6 0 6-12 12.2-12s6.2 12 12.4 12S59.8 62 66 62z"/><path d="M103 74c1.8 0 3-.8 3.6-1.6.8-1 1.2-2.3 1.2-3.6-.6-23-19-41.5-41.8-41.5-22.8 0-41.3 18.5-42 41.5 0 1.3.5 2.6 1.3 3.6.7.8 1.8 1.6 3.6 1.6"/><path d="M66 27.3S45 30 41.7 53.5M66 27.3v20.4M66 27.3S87 30 90 53.5"/><circle cx="65.9" cy="20" r="7.3"/><path d="M66 12.7s-1-9 6-11.2M113.3 107.8c-12.6 2.6-29.3 4-47 4s-34.3-1.4-47-4M101.3 80.7c18 2.4 30 6.4 30 11 0 7.3-29.2 13-65 13S1.5 99 1.5 91.8c0-4.5 11.6-8.5 29-11"/></g></svg>