<svg xmlns="http://www.w3.org/2000/svg" height="54" viewBox="0 0 135.8 110.2"><g fill="none" stroke="#929292" stroke-width="3" stroke-linecap="round" stroke-linejoin="round"><circle cx="55.1" cy="55.1" r="37.9"/><path d="M55 27.5C40 27.5 27.6 40 27.6 55M93 17.2l-2-1.8C70-3.6 37.6-3 17.3 17.2c-21 21-21 55 0 75.8 19 19 48.3 20.7 69.2 5.6"/><path d="M134.3 2v25.2c0 3-2 5.5-5 6-3 .7-5 3.3-5 6.3v64c0 2.7-2 4.7-4.6 4.7-2.5 0-4.6-2-4.6-4.6v-64c0-3-2-5.7-5-6.3-2.6-.6-5-3.2-5-6V2m10 0v21.8M124.6 2v21.8"/></g></svg>