<svg xmlns="http://www.w3.org/2000/svg" height="46" viewBox="0 0 135.7 90.5"><g fill="none" stroke="#939393" stroke-width="3" stroke-linecap="round"><path d="M92.4 80.6c14.6 0 24.4-3 30.7-6.2 7.4-3.6 10-7.4 10-7.4H2.8S12 80.6 43.3 80.6"/><path d="M126 67c0-26.7-20.7-53.3-58.2-53.3S9.8 40.3 9.8 67M45 28.2C28.4 35.7 19.7 51.4 19.7 67m91.5 22c-3.3-5.2-9-8.4-15.3-8.4H39.5c-6.2 0-12 3.2-15.3 8.4"/><path d="M75.4 14c.6-1.2 1-2.5 1-4 0-4.7-4-8.5-8.6-8.5-4.7 0-8.5 3.8-8.5 8.5 0 1.5.4 2.8 1 4"/></g></svg>